<?xml version="1.0" encoding="UTF-8" standalone="no"?>
<!DOCTYPE svg PUBLIC "-//W3C//DTD SVG 1.1//EN"
 "http://www.w3.org/Graphics/SVG/1.1/DTD/svg11.dtd">
<!-- Generated by graphviz version 2.44.1 (20200629.0846)
 -->
<!-- Title: g Pages: 1 -->
<svg width="1500pt" height="561pt"
 viewBox="0.00 0.00 1500.00 561.40" xmlns="http://www.w3.org/2000/svg" xmlns:xlink="http://www.w3.org/1999/xlink">
<g id="graph0" class="graph" transform="scale(1 1) rotate(0) translate(4 557.4)">
<title>g</title>
<polygon fill="white" stroke="transparent" points="-4,4 -4,-557.4 1496,-557.4 1496,4 -4,4"/>
<g id="clust1" class="cluster">
<title>cluster_995410016</title>
<polygon fill="#ececec" stroke="black" points="8,-8 8,-545.4 1484,-545.4 1484,-8 8,-8"/>
<text text-anchor="middle" x="33.49" y="-528.8" font-family="Times New Roman,serif" font-size="14.00">parte2</text>
</g>
<!-- Component890418833 -->
<g id="node1" class="node">
<title>Component890418833</title>
<polygon fill="#ffffff" stroke="transparent" points="839.5,-66 708.5,-66 708.5,-16 839.5,-16 839.5,-66"/>
<text text-anchor="start" x="714" y="-48.4" font-family="Times New Roman,serif" font-size="14.00">(C)Component</text>
<text text-anchor="start" x="713.65" y="-24.4" font-family="Times New Roman,serif" font-size="14.00">&#45; &#160;&#160;nome: String [0..1]</text>
<polygon fill="black" stroke="black" points="709,-41 709,-41 840,-41 840,-41 709,-41"/>
<polygon fill="none" stroke="black" points="708.5,-16 708.5,-66 839.5,-66 839.5,-16 708.5,-16"/>
</g>
<!-- Container890418833 -->
<g id="node2" class="node">
<title>Container890418833</title>
<polygon fill="#ffffff" stroke="transparent" points="882,-512.6 666,-512.6 666,-390.6 882,-390.6 882,-512.6"/>
<text text-anchor="start" x="671" y="-495" font-family="Times New Roman,serif" font-size="14.00">(C)Container</text>
<text text-anchor="start" x="671" y="-471" font-family="Times New Roman,serif" font-size="14.00">+ addComponent(c: Component)</text>
<text text-anchor="start" x="671" y="-447" font-family="Times New Roman,serif" font-size="14.00">+ dispose()</text>
<text text-anchor="start" x="671" y="-423" font-family="Times New Roman,serif" font-size="14.00">+ doLayout()</text>
<text text-anchor="start" x="670.52" y="-399" font-family="Times New Roman,serif" font-size="14.00">+ removeComponent(c: Component)</text>
<polygon fill="black" stroke="black" points="666,-487.6 666,-487.6 882,-487.6 882,-487.6 666,-487.6"/>
<polygon fill="none" stroke="black" points="666,-390.6 666,-512.6 882,-512.6 882,-390.6 666,-390.6"/>
</g>
<!-- FlowContainer890418833 -->
<g id="node3" class="node">
<title>FlowContainer890418833</title>
<polygon fill="#ffffff" stroke="transparent" points="235.5,-305.6 16.5,-305.6 16.5,-183.6 235.5,-183.6 235.5,-305.6"/>
<text text-anchor="start" x="22" y="-288" font-family="Times New Roman,serif" font-size="14.00">(C)FlowContainer</text>
<text text-anchor="start" x="21.98" y="-264" font-family="Times New Roman,serif" font-size="14.00">&#45; &#160;&#160;elements: List&lt;Component&gt; [0..*]</text>
<text text-anchor="start" x="22" y="-240" font-family="Times New Roman,serif" font-size="14.00">+ addComponent(c: Component)</text>
<text text-anchor="start" x="22" y="-216" font-family="Times New Roman,serif" font-size="14.00">+ doLayout()</text>
<text text-anchor="start" x="22" y="-192" font-family="Times New Roman,serif" font-size="14.00">+ removeComponent(c: Component)</text>
<polygon fill="black" stroke="black" points="17,-280.6 17,-280.6 236,-280.6 236,-280.6 17,-280.6"/>
<polygon fill="black" stroke="black" points="17,-256.6 17,-256.6 236,-256.6 236,-256.6 17,-256.6"/>
<polygon fill="none" stroke="black" points="16.5,-183.6 16.5,-305.6 235.5,-305.6 235.5,-183.6 16.5,-183.6"/>
</g>
<!-- Container890418833&#45;&gt;FlowContainer890418833 -->
<g id="edge1" class="edge">
<title>Container890418833&#45;&gt;FlowContainer890418833</title>
<path fill="none" stroke="black" d="M655.87,-428.94C499.95,-400.35 245,-353.6 245,-353.6 245,-353.6 219.5,-330.46 192.11,-305.6"/>
<polygon fill="none" stroke="black" points="655.52,-432.43 665.99,-430.8 656.79,-425.55 655.52,-432.43"/>
</g>
<!-- FlowContainerBordaPontilhada890418833 -->
<g id="node4" class="node">
<title>FlowContainerBordaPontilhada890418833</title>
<polygon fill="#ffffff" stroke="transparent" points="504.5,-305.6 253.5,-305.6 253.5,-183.6 504.5,-183.6 504.5,-305.6"/>
<text text-anchor="start" x="259" y="-288" font-family="Times New Roman,serif" font-size="14.00">(C)FlowContainerBordaPontilhada</text>
<text text-anchor="start" x="258.66" y="-264" font-family="Times New Roman,serif" font-size="14.00">&#45; &#160;&#160;elements: ArrayList&lt;Component&gt; [0..*]</text>
<text text-anchor="start" x="259" y="-240" font-family="Times New Roman,serif" font-size="14.00">+ addComponent(c: Component)</text>
<text text-anchor="start" x="259" y="-216" font-family="Times New Roman,serif" font-size="14.00">+ doLayout()</text>
<text text-anchor="start" x="259" y="-192" font-family="Times New Roman,serif" font-size="14.00">+ removeComponent(c: Component)</text>
<polygon fill="black" stroke="black" points="254,-280.6 254,-280.6 505,-280.6 505,-280.6 254,-280.6"/>
<polygon fill="black" stroke="black" points="254,-256.6 254,-256.6 505,-256.6 505,-256.6 254,-256.6"/>
<polygon fill="none" stroke="black" points="253.5,-183.6 253.5,-305.6 504.5,-305.6 504.5,-183.6 253.5,-183.6"/>
</g>
<!-- Container890418833&#45;&gt;FlowContainerBordaPontilhada890418833 -->
<g id="edge2" class="edge">
<title>Container890418833&#45;&gt;FlowContainerBordaPontilhada890418833</title>
<path fill="none" stroke="black" d="M656.32,-406.7C587.49,-381.02 514,-353.6 514,-353.6 514,-353.6 485.07,-330.46 454,-305.6"/>
<polygon fill="none" stroke="black" points="655.4,-410.09 666,-410.31 657.85,-403.53 655.4,-410.09"/>
</g>
<!-- FlowContainerBordaSolida890418833 -->
<g id="node5" class="node">
<title>FlowContainerBordaSolida890418833</title>
<polygon fill="#ffffff" stroke="transparent" points="773.5,-305.6 522.5,-305.6 522.5,-183.6 773.5,-183.6 773.5,-305.6"/>
<text text-anchor="start" x="528" y="-288" font-family="Times New Roman,serif" font-size="14.00">(C)FlowContainerBordaSolida</text>
<text text-anchor="start" x="527.66" y="-264" font-family="Times New Roman,serif" font-size="14.00">&#45; &#160;&#160;elements: ArrayList&lt;Component&gt; [0..*]</text>
<text text-anchor="start" x="528" y="-240" font-family="Times New Roman,serif" font-size="14.00">+ addComponent(c: Component)</text>
<text text-anchor="start" x="528" y="-216" font-family="Times New Roman,serif" font-size="14.00">+ doLayout()</text>
<text text-anchor="start" x="528" y="-192" font-family="Times New Roman,serif" font-size="14.00">+ removeComponent(c: Component)</text>
<polygon fill="black" stroke="black" points="523,-280.6 523,-280.6 774,-280.6 774,-280.6 523,-280.6"/>
<polygon fill="black" stroke="black" points="523,-256.6 523,-256.6 774,-256.6 774,-256.6 523,-256.6"/>
<polygon fill="none" stroke="black" points="522.5,-183.6 522.5,-305.6 773.5,-305.6 773.5,-183.6 522.5,-183.6"/>
</g>
<!-- Container890418833&#45;&gt;FlowContainerBordaSolida890418833 -->
<g id="edge3" class="edge">
<title>Container890418833&#45;&gt;FlowContainerBordaSolida890418833</title>
<path fill="none" stroke="black" d="M731.77,-381.89C716.6,-357.22 699.63,-329.6 684.95,-305.72"/>
<polygon fill="none" stroke="black" points="728.83,-383.79 737.05,-390.48 734.79,-380.13 728.83,-383.79"/>
</g>
<!-- GridContainer890418833 -->
<g id="node6" class="node">
<title>GridContainer890418833</title>
<polygon fill="#ffffff" stroke="transparent" points="1008,-353.6 792,-353.6 792,-135.6 1008,-135.6 1008,-353.6"/>
<text text-anchor="start" x="797" y="-336" font-family="Times New Roman,serif" font-size="14.00">(C)GridContainer</text>
<text text-anchor="start" x="797" y="-312" font-family="Times New Roman,serif" font-size="14.00">&#45; &#160;&#160;ColumnMax: int [1]</text>
<text text-anchor="start" x="797" y="-288" font-family="Times New Roman,serif" font-size="14.00">&#45; &#160;&#160;columnCounter: int [1]</text>
<text text-anchor="start" x="797" y="-264" font-family="Times New Roman,serif" font-size="14.00">&#45; &#160;&#160;elements: Component[][] [0..*]</text>
<text text-anchor="start" x="797" y="-240" font-family="Times New Roman,serif" font-size="14.00">&#45; &#160;&#160;lineCounter: int [1]</text>
<text text-anchor="start" x="797" y="-216" font-family="Times New Roman,serif" font-size="14.00">&#45; &#160;&#160;lineMax: int [1]</text>
<text text-anchor="start" x="797" y="-192" font-family="Times New Roman,serif" font-size="14.00">+ addComponent(c: Component)</text>
<text text-anchor="start" x="797" y="-168" font-family="Times New Roman,serif" font-size="14.00">+ doLayout()</text>
<text text-anchor="start" x="796.52" y="-144" font-family="Times New Roman,serif" font-size="14.00">+ removeComponent(c: Component)</text>
<polygon fill="black" stroke="black" points="792,-328.6 792,-328.6 1008,-328.6 1008,-328.6 792,-328.6"/>
<polygon fill="black" stroke="black" points="792,-208.6 792,-208.6 1008,-208.6 1008,-208.6 792,-208.6"/>
<polygon fill="none" stroke="black" points="792,-135.6 792,-353.6 1008,-353.6 1008,-135.6 792,-135.6"/>
</g>
<!-- Container890418833&#45;&gt;GridContainer890418833 -->
<g id="edge4" class="edge">
<title>Container890418833&#45;&gt;GridContainer890418833</title>
<path fill="none" stroke="black" d="M816.21,-381.92C821.78,-372.86 827.59,-363.4 833.45,-353.88"/>
<polygon fill="none" stroke="black" points="813.21,-380.13 810.95,-390.48 819.17,-383.79 813.21,-380.13"/>
</g>
<!-- GridContainerBordaPontilhada890418833 -->
<g id="node7" class="node">
<title>GridContainerBordaPontilhada890418833</title>
<polygon fill="#ffffff" stroke="transparent" points="1242,-353.6 1026,-353.6 1026,-135.6 1242,-135.6 1242,-353.6"/>
<text text-anchor="start" x="1031" y="-336" font-family="Times New Roman,serif" font-size="14.00">(C)GridContainerBordaPontilhada</text>
<text text-anchor="start" x="1031" y="-312" font-family="Times New Roman,serif" font-size="14.00">&#45; &#160;&#160;ColumnMax: int [1]</text>
<text text-anchor="start" x="1031" y="-288" font-family="Times New Roman,serif" font-size="14.00">&#45; &#160;&#160;columnCounter: int [1]</text>
<text text-anchor="start" x="1031" y="-264" font-family="Times New Roman,serif" font-size="14.00">&#45; &#160;&#160;elements: Component[][] [0..*]</text>
<text text-anchor="start" x="1031" y="-240" font-family="Times New Roman,serif" font-size="14.00">&#45; &#160;&#160;lineCounter: int [1]</text>
<text text-anchor="start" x="1031" y="-216" font-family="Times New Roman,serif" font-size="14.00">&#45; &#160;&#160;lineMax: int [1]</text>
<text text-anchor="start" x="1031" y="-192" font-family="Times New Roman,serif" font-size="14.00">+ addComponent(c: Component)</text>
<text text-anchor="start" x="1031" y="-168" font-family="Times New Roman,serif" font-size="14.00">+ doLayout()</text>
<text text-anchor="start" x="1030.52" y="-144" font-family="Times New Roman,serif" font-size="14.00">+ removeComponent(c: Component)</text>
<polygon fill="black" stroke="black" points="1026,-328.6 1026,-328.6 1242,-328.6 1242,-328.6 1026,-328.6"/>
<polygon fill="black" stroke="black" points="1026,-208.6 1026,-208.6 1242,-208.6 1242,-208.6 1026,-208.6"/>
<polygon fill="none" stroke="black" points="1026,-135.6 1026,-353.6 1242,-353.6 1242,-135.6 1026,-135.6"/>
</g>
<!-- Container890418833&#45;&gt;GridContainerBordaPontilhada890418833 -->
<g id="edge5" class="edge">
<title>Container890418833&#45;&gt;GridContainerBordaPontilhada890418833</title>
<path fill="none" stroke="black" d="M891.87,-403.55C953.81,-378.83 1017,-353.6 1017,-353.6 1017,-353.6 1020.3,-350.55 1025.79,-345.48"/>
<polygon fill="none" stroke="black" points="890.34,-400.39 882.35,-407.35 892.94,-406.89 890.34,-400.39"/>
</g>
<!-- GridContainerBordaSolida890418833 -->
<g id="node8" class="node">
<title>GridContainerBordaSolida890418833</title>
<polygon fill="#ffffff" stroke="transparent" points="1476,-353.6 1260,-353.6 1260,-135.6 1476,-135.6 1476,-353.6"/>
<text text-anchor="start" x="1265" y="-336" font-family="Times New Roman,serif" font-size="14.00">(C)GridContainerBordaSolida</text>
<text text-anchor="start" x="1265" y="-312" font-family="Times New Roman,serif" font-size="14.00">&#45; &#160;&#160;ColumnMax: int [1]</text>
<text text-anchor="start" x="1265" y="-288" font-family="Times New Roman,serif" font-size="14.00">&#45; &#160;&#160;columnCounter: int [1]</text>
<text text-anchor="start" x="1265" y="-264" font-family="Times New Roman,serif" font-size="14.00">&#45; &#160;&#160;elements: Component[][] [0..*]</text>
<text text-anchor="start" x="1265" y="-240" font-family="Times New Roman,serif" font-size="14.00">&#45; &#160;&#160;lineCounter: int [1]</text>
<text text-anchor="start" x="1265" y="-216" font-family="Times New Roman,serif" font-size="14.00">&#45; &#160;&#160;lineMax: int [1]</text>
<text text-anchor="start" x="1265" y="-192" font-family="Times New Roman,serif" font-size="14.00">+ addComponent(c: Component)</text>
<text text-anchor="start" x="1265" y="-168" font-family="Times New Roman,serif" font-size="14.00">+ doLayout()</text>
<text text-anchor="start" x="1264.52" y="-144" font-family="Times New Roman,serif" font-size="14.00">+ removeComponent(c: Component)</text>
<polygon fill="black" stroke="black" points="1260,-328.6 1260,-328.6 1476,-328.6 1476,-328.6 1260,-328.6"/>
<polygon fill="black" stroke="black" points="1260,-208.6 1260,-208.6 1476,-208.6 1476,-208.6 1260,-208.6"/>
<polygon fill="none" stroke="black" points="1260,-135.6 1260,-353.6 1476,-353.6 1476,-135.6 1260,-135.6"/>
</g>
<!-- Container890418833&#45;&gt;GridContainerBordaSolida890418833 -->
<g id="edge6" class="edge">
<title>Container890418833&#45;&gt;GridContainerBordaSolida890418833</title>
<path fill="none" stroke="black" d="M892.27,-426.55C1033.54,-397.82 1251,-353.6 1251,-353.6 1251,-353.6 1254.3,-350.55 1259.79,-345.48"/>
<polygon fill="none" stroke="black" points="891.34,-423.17 882.24,-428.59 892.74,-430.03 891.34,-423.17"/>
</g>
<!-- FlowContainer890418833&#45;&gt;Component890418833 -->
<g id="edge7" class="edge">
<title>FlowContainer890418833&#45;&gt;Component890418833</title>
<path fill="none" stroke="black" d="M192.11,-183.6C219.5,-158.74 245,-135.6 245,-135.6 245,-135.6 516.24,-84 516.24,-84 516.24,-84 622.19,-66.74 698.24,-54.34"/>
<polygon fill="black" stroke="black" points="698.98,-57.77 708.29,-52.71 697.86,-50.86 698.98,-57.77"/>
<text text-anchor="middle" x="540.88" y="-105" font-family="Times New Roman,serif" font-size="14.00">elements</text>
<text text-anchor="middle" x="540.88" y="-88.2" font-family="Times New Roman,serif" font-size="14.00">[0..*]</text>
</g>
<!-- FlowContainerBordaPontilhada890418833&#45;&gt;Component890418833 -->
<g id="edge8" class="edge">
<title>FlowContainerBordaPontilhada890418833&#45;&gt;Component890418833</title>
<path fill="none" stroke="black" d="M454,-183.6C485.07,-158.74 514,-135.6 514,-135.6 514,-135.6 621.94,-96.74 698.72,-69.1"/>
<polygon fill="black" stroke="black" points="700.17,-72.3 708.39,-65.62 697.8,-65.71 700.17,-72.3"/>
<text text-anchor="middle" x="675.88" y="-105" font-family="Times New Roman,serif" font-size="14.00">elements</text>
<text text-anchor="middle" x="675.88" y="-88.2" font-family="Times New Roman,serif" font-size="14.00">[0..*]</text>
</g>
<!-- FlowContainerBordaSolida890418833&#45;&gt;Component890418833 -->
<g id="edge9" class="edge">
<title>FlowContainerBordaSolida890418833&#45;&gt;Component890418833</title>
<path fill="none" stroke="black" d="M685.63,-183.39C707.91,-147.74 735.27,-103.97 753.59,-74.65"/>
<polygon fill="black" stroke="black" points="756.64,-76.38 758.97,-66.05 750.7,-72.67 756.64,-76.38"/>
<text text-anchor="middle" x="770.88" y="-105" font-family="Times New Roman,serif" font-size="14.00">elements</text>
<text text-anchor="middle" x="770.88" y="-88.2" font-family="Times New Roman,serif" font-size="14.00">[0..*]</text>
</g>
<!-- GridContainer890418833&#45;&gt;Component890418833 -->
<g id="edge10" class="edge">
<title>GridContainer890418833&#45;&gt;Component890418833</title>
<path fill="none" stroke="black" d="M832.39,-135.42C818.6,-113.36 805.1,-91.76 794.56,-74.9"/>
<polygon fill="black" stroke="black" points="797.3,-72.68 789.03,-66.05 791.36,-76.39 797.3,-72.68"/>
<text text-anchor="middle" x="842.88" y="-105" font-family="Times New Roman,serif" font-size="14.00">elements</text>
<text text-anchor="middle" x="842.88" y="-88.2" font-family="Times New Roman,serif" font-size="14.00">[0..*]</text>
</g>
<!-- GridContainerBordaPontilhada890418833&#45;&gt;Component890418833 -->
<g id="edge11" class="edge">
<title>GridContainerBordaPontilhada890418833&#45;&gt;Component890418833</title>
<path fill="none" stroke="black" d="M1025.79,-143.72C1020.3,-138.65 1017,-135.6 1017,-135.6 1017,-135.6 917.7,-97.35 846.05,-69.75"/>
<polygon fill="black" stroke="black" points="847.17,-66.43 836.58,-66.1 844.65,-72.96 847.17,-66.43"/>
<text text-anchor="middle" x="988.88" y="-105" font-family="Times New Roman,serif" font-size="14.00">elements</text>
<text text-anchor="middle" x="988.88" y="-88.2" font-family="Times New Roman,serif" font-size="14.00">[0..*]</text>
</g>
<!-- GridContainerBordaSolida890418833&#45;&gt;Component890418833 -->
<g id="edge12" class="edge">
<title>GridContainerBordaSolida890418833&#45;&gt;Component890418833</title>
<path fill="none" stroke="black" d="M1259.79,-143.72C1254.3,-138.65 1251,-135.6 1251,-135.6 1251,-135.6 1018,-84 1018,-84 1018,-84 921.29,-67.35 849.64,-55.02"/>
<polygon fill="black" stroke="black" points="850.16,-51.56 839.71,-53.31 848.97,-58.46 850.16,-51.56"/>
<text text-anchor="middle" x="1192.88" y="-105" font-family="Times New Roman,serif" font-size="14.00">elements</text>
<text text-anchor="middle" x="1192.88" y="-88.2" font-family="Times New Roman,serif" font-size="14.00">[0..*]</text>
</g>
</g>
</svg>
