<?xml version="1.0" encoding="UTF-8" standalone="no"?>
<!DOCTYPE svg PUBLIC "-//W3C//DTD SVG 1.1//EN"
 "http://www.w3.org/Graphics/SVG/1.1/DTD/svg11.dtd">
<!-- Generated by graphviz version 2.44.1 (20200629.0846)
 -->
<!-- Title: g Pages: 1 -->
<svg width="494pt" height="561pt"
 viewBox="0.00 0.00 494.00 561.40" xmlns="http://www.w3.org/2000/svg" xmlns:xlink="http://www.w3.org/1999/xlink">
<g id="graph0" class="graph" transform="scale(1 1) rotate(0) translate(4 557.4)">
<title>g</title>
<polygon fill="white" stroke="transparent" points="-4,4 -4,-557.4 490,-557.4 490,4 -4,4"/>
<g id="clust1" class="cluster">
<title>cluster_995410017</title>
<polygon fill="#ececec" stroke="black" points="8,-8 8,-545.4 478,-545.4 478,-8 8,-8"/>
<text text-anchor="middle" x="33.49" y="-528.8" font-family="Times New Roman,serif" font-size="14.00">parte1</text>
</g>
<!-- Component890418834 -->
<g id="node1" class="node">
<title>Component890418834</title>
<polygon fill="#ffffff" stroke="transparent" points="268.5,-66 137.5,-66 137.5,-16 268.5,-16 268.5,-66"/>
<text text-anchor="start" x="143" y="-48.4" font-family="Times New Roman,serif" font-size="14.00">(C)Component</text>
<text text-anchor="start" x="142.65" y="-24.4" font-family="Times New Roman,serif" font-size="14.00">&#45; &#160;&#160;nome: String [0..1]</text>
<polygon fill="black" stroke="black" points="138,-41 138,-41 269,-41 269,-41 138,-41"/>
<polygon fill="none" stroke="black" points="137.5,-16 137.5,-66 268.5,-66 268.5,-16 137.5,-16"/>
</g>
<!-- Container890418834 -->
<g id="node2" class="node">
<title>Container890418834</title>
<polygon fill="#ffffff" stroke="transparent" points="352,-512.6 136,-512.6 136,-390.6 352,-390.6 352,-512.6"/>
<text text-anchor="start" x="141" y="-495" font-family="Times New Roman,serif" font-size="14.00">(C)Container</text>
<text text-anchor="start" x="141" y="-471" font-family="Times New Roman,serif" font-size="14.00">+ addComponent(c: Component)</text>
<text text-anchor="start" x="141" y="-447" font-family="Times New Roman,serif" font-size="14.00">+ dispose()</text>
<text text-anchor="start" x="141" y="-423" font-family="Times New Roman,serif" font-size="14.00">+ doLayout()</text>
<text text-anchor="start" x="140.52" y="-399" font-family="Times New Roman,serif" font-size="14.00">+ removeComponent(c: Component)</text>
<polygon fill="black" stroke="black" points="136,-487.6 136,-487.6 352,-487.6 352,-487.6 136,-487.6"/>
<polygon fill="none" stroke="black" points="136,-390.6 136,-512.6 352,-512.6 352,-390.6 136,-390.6"/>
</g>
<!-- FlowContainer890418834 -->
<g id="node3" class="node">
<title>FlowContainer890418834</title>
<polygon fill="#ffffff" stroke="transparent" points="235.5,-305.6 16.5,-305.6 16.5,-183.6 235.5,-183.6 235.5,-305.6"/>
<text text-anchor="start" x="22" y="-288" font-family="Times New Roman,serif" font-size="14.00">(C)FlowContainer</text>
<text text-anchor="start" x="21.98" y="-264" font-family="Times New Roman,serif" font-size="14.00">&#45; &#160;&#160;elements: List&lt;Component&gt; [0..*]</text>
<text text-anchor="start" x="22" y="-240" font-family="Times New Roman,serif" font-size="14.00">+ addComponent(c: Component)</text>
<text text-anchor="start" x="22" y="-216" font-family="Times New Roman,serif" font-size="14.00">+ doLayout()</text>
<text text-anchor="start" x="22" y="-192" font-family="Times New Roman,serif" font-size="14.00">+ removeComponent(c: Component)</text>
<polygon fill="black" stroke="black" points="17,-280.6 17,-280.6 236,-280.6 236,-280.6 17,-280.6"/>
<polygon fill="black" stroke="black" points="17,-256.6 17,-256.6 236,-256.6 236,-256.6 17,-256.6"/>
<polygon fill="none" stroke="black" points="16.5,-183.6 16.5,-305.6 235.5,-305.6 235.5,-183.6 16.5,-183.6"/>
</g>
<!-- Container890418834&#45;&gt;FlowContainer890418834 -->
<g id="edge1" class="edge">
<title>Container890418834&#45;&gt;FlowContainer890418834</title>
<path fill="none" stroke="black" d="M204.26,-381.56C190.11,-356.97 174.29,-329.5 160.61,-305.72"/>
<polygon fill="none" stroke="black" points="201.37,-383.56 209.39,-390.48 207.44,-380.07 201.37,-383.56"/>
</g>
<!-- GridContainer890418834 -->
<g id="node4" class="node">
<title>GridContainer890418834</title>
<polygon fill="#ffffff" stroke="transparent" points="470,-353.6 254,-353.6 254,-135.6 470,-135.6 470,-353.6"/>
<text text-anchor="start" x="259" y="-336" font-family="Times New Roman,serif" font-size="14.00">(C)GridContainer</text>
<text text-anchor="start" x="259" y="-312" font-family="Times New Roman,serif" font-size="14.00">&#45; &#160;&#160;ColumnMax: int [1]</text>
<text text-anchor="start" x="259" y="-288" font-family="Times New Roman,serif" font-size="14.00">&#45; &#160;&#160;columnCounter: int [1]</text>
<text text-anchor="start" x="259" y="-264" font-family="Times New Roman,serif" font-size="14.00">&#45; &#160;&#160;elements: Component[][] [0..*]</text>
<text text-anchor="start" x="259" y="-240" font-family="Times New Roman,serif" font-size="14.00">&#45; &#160;&#160;lineCounter: int [1]</text>
<text text-anchor="start" x="259" y="-216" font-family="Times New Roman,serif" font-size="14.00">&#45; &#160;&#160;lineMax: int [1]</text>
<text text-anchor="start" x="259" y="-192" font-family="Times New Roman,serif" font-size="14.00">+ addComponent(c: Component)</text>
<text text-anchor="start" x="259" y="-168" font-family="Times New Roman,serif" font-size="14.00">+ doLayout()</text>
<text text-anchor="start" x="258.52" y="-144" font-family="Times New Roman,serif" font-size="14.00">+ removeComponent(c: Component)</text>
<polygon fill="black" stroke="black" points="254,-328.6 254,-328.6 470,-328.6 470,-328.6 254,-328.6"/>
<polygon fill="black" stroke="black" points="254,-208.6 254,-208.6 470,-208.6 470,-208.6 254,-208.6"/>
<polygon fill="none" stroke="black" points="254,-135.6 254,-353.6 470,-353.6 470,-135.6 254,-135.6"/>
</g>
<!-- Container890418834&#45;&gt;GridContainer890418834 -->
<g id="edge2" class="edge">
<title>Container890418834&#45;&gt;GridContainer890418834</title>
<path fill="none" stroke="black" d="M283.69,-381.64C288.86,-372.67 294.25,-363.3 299.67,-353.88"/>
<polygon fill="none" stroke="black" points="280.56,-380.07 278.61,-390.48 286.63,-383.56 280.56,-380.07"/>
</g>
<!-- FlowContainer890418834&#45;&gt;Component890418834 -->
<g id="edge3" class="edge">
<title>FlowContainer890418834&#45;&gt;Component890418834</title>
<path fill="none" stroke="black" d="M149,-183.39C162.5,-148.05 179.04,-104.72 190.24,-75.42"/>
<polygon fill="black" stroke="black" points="193.52,-76.64 193.82,-66.05 186.98,-74.14 193.52,-76.64"/>
<text text-anchor="middle" x="210.88" y="-105" font-family="Times New Roman,serif" font-size="14.00">elements</text>
<text text-anchor="middle" x="210.88" y="-88.2" font-family="Times New Roman,serif" font-size="14.00">[0..*]</text>
</g>
<!-- GridContainer890418834&#45;&gt;Component890418834 -->
<g id="edge4" class="edge">
<title>GridContainer890418834&#45;&gt;Component890418834</title>
<path fill="none" stroke="black" d="M279.27,-135.38C257.52,-106.91 240,-84 240,-84 240,-84 236.37,-79.88 231.39,-74.23"/>
<polygon fill="black" stroke="black" points="233.76,-71.62 224.52,-66.43 228.51,-76.25 233.76,-71.62"/>
<text text-anchor="middle" x="287.88" y="-105" font-family="Times New Roman,serif" font-size="14.00">elements</text>
<text text-anchor="middle" x="287.88" y="-88.2" font-family="Times New Roman,serif" font-size="14.00">[0..*]</text>
</g>
</g>
</svg>
