<?xml version="1.0" encoding="UTF-8" standalone="no"?>
<!DOCTYPE svg PUBLIC "-//W3C//DTD SVG 1.1//EN"
 "http://www.w3.org/Graphics/SVG/1.1/DTD/svg11.dtd">
<!-- Generated by graphviz version 2.44.1 (20200629.0846)
 -->
<!-- Title: g Pages: 1 -->
<svg width="760pt" height="258pt"
 viewBox="0.00 0.00 760.00 258.40" xmlns="http://www.w3.org/2000/svg" xmlns:xlink="http://www.w3.org/1999/xlink">
<g id="graph0" class="graph" transform="scale(1 1) rotate(0) translate(4 254.4)">
<title>g</title>
<polygon fill="white" stroke="transparent" points="-4,4 -4,-254.4 756,-254.4 756,4 -4,4"/>
<g id="clust1" class="cluster">
<title>cluster_995410017</title>
<polygon fill="#ececec" stroke="black" points="8,-8 8,-242.4 744,-242.4 744,-8 8,-8"/>
<text text-anchor="middle" x="33.49" y="-225.8" font-family="Times New Roman,serif" font-size="14.00">parte1</text>
</g>
<!-- MysqlConnection1661738127 -->
<g id="node1" class="node">
<title>MysqlConnection1661738127</title>
<polygon fill="#ffffff" stroke="transparent" points="440,-66 312,-66 312,-16 440,-16 440,-66"/>
<text text-anchor="start" x="316.51" y="-48.4" font-family="Times New Roman,serif" font-size="14.00">(C)MysqlConnection</text>
<text text-anchor="start" x="317" y="-24.4" font-family="Times New Roman,serif" font-size="14.00">+ connect()</text>
<polygon fill="black" stroke="black" points="312,-41 312,-41 440,-41 440,-41 312,-41"/>
<polygon fill="none" stroke="black" points="312,-16 312,-66 440,-66 440,-16 312,-16"/>
</g>
<!-- RelatorioReserva1661738127 -->
<g id="node2" class="node">
<title>RelatorioReserva1661738127</title>
<polygon fill="#ffffff" stroke="transparent" points="736,-209.6 508,-209.6 508,-135.6 736,-135.6 736,-209.6"/>
<text text-anchor="start" x="513" y="-192" font-family="Times New Roman,serif" font-size="14.00">(C)RelatorioReserva</text>
<text text-anchor="start" x="512.94" y="-168" font-family="Times New Roman,serif" font-size="14.00">&#45; &#160;&#160;connection: MysqlConnection [0..1]</text>
<text text-anchor="start" x="513" y="-144" font-family="Times New Roman,serif" font-size="14.00">+ gerarRelatorio()</text>
<polygon fill="black" stroke="black" points="508,-184.6 508,-184.6 736,-184.6 736,-184.6 508,-184.6"/>
<polygon fill="black" stroke="black" points="508,-160.6 508,-160.6 736,-160.6 736,-160.6 508,-160.6"/>
<polygon fill="none" stroke="black" points="508,-135.6 508,-209.6 736,-209.6 736,-135.6 508,-135.6"/>
</g>
<!-- RelatorioReserva1661738127&#45;&gt;MysqlConnection1661738127 -->
<g id="edge1" class="edge">
<title>RelatorioReserva1661738127&#45;&gt;MysqlConnection1661738127</title>
<path fill="none" stroke="black" d="M553.48,-135.5C514.68,-115.06 466.83,-89.85 430.59,-70.76"/>
<polygon fill="black" stroke="black" points="432.12,-67.61 421.64,-66.04 428.86,-73.8 432.12,-67.61"/>
<text text-anchor="middle" x="543.71" y="-105" font-family="Times New Roman,serif" font-size="14.00">connection</text>
<text text-anchor="middle" x="543.71" y="-88.2" font-family="Times New Roman,serif" font-size="14.00">[0..1]</text>
</g>
<!-- ServicoQuarto1661738127 -->
<g id="node3" class="node">
<title>ServicoQuarto1661738127</title>
<polygon fill="#ffffff" stroke="transparent" points="490,-209.6 262,-209.6 262,-135.6 490,-135.6 490,-209.6"/>
<text text-anchor="start" x="267" y="-192" font-family="Times New Roman,serif" font-size="14.00">(C)ServicoQuarto</text>
<text text-anchor="start" x="266.94" y="-168" font-family="Times New Roman,serif" font-size="14.00">&#45; &#160;&#160;connection: MysqlConnection [0..1]</text>
<text text-anchor="start" x="267" y="-144" font-family="Times New Roman,serif" font-size="14.00">+ verificarQuarto()</text>
<polygon fill="black" stroke="black" points="262,-184.6 262,-184.6 490,-184.6 490,-184.6 262,-184.6"/>
<polygon fill="black" stroke="black" points="262,-160.6 262,-160.6 490,-160.6 490,-160.6 262,-160.6"/>
<polygon fill="none" stroke="black" points="262,-135.6 262,-209.6 490,-209.6 490,-135.6 262,-135.6"/>
</g>
<!-- ServicoQuarto1661738127&#45;&gt;MysqlConnection1661738127 -->
<g id="edge2" class="edge">
<title>ServicoQuarto1661738127&#45;&gt;MysqlConnection1661738127</title>
<path fill="none" stroke="black" d="M376,-135.5C376,-116.97 376,-94.51 376,-76.25"/>
<polygon fill="black" stroke="black" points="379.5,-76.04 376,-66.04 372.5,-76.04 379.5,-76.04"/>
<text text-anchor="middle" x="406.71" y="-105" font-family="Times New Roman,serif" font-size="14.00">connection</text>
<text text-anchor="middle" x="406.71" y="-88.2" font-family="Times New Roman,serif" font-size="14.00">[0..1]</text>
</g>
<!-- ServicoReserva1661738127 -->
<g id="node4" class="node">
<title>ServicoReserva1661738127</title>
<polygon fill="#ffffff" stroke="transparent" points="244,-209.6 16,-209.6 16,-135.6 244,-135.6 244,-209.6"/>
<text text-anchor="start" x="21" y="-192" font-family="Times New Roman,serif" font-size="14.00">(C)ServicoReserva</text>
<text text-anchor="start" x="20.94" y="-168" font-family="Times New Roman,serif" font-size="14.00">&#45; &#160;&#160;connection: MysqlConnection [0..1]</text>
<text text-anchor="start" x="21" y="-144" font-family="Times New Roman,serif" font-size="14.00">+ criarReserva()</text>
<polygon fill="black" stroke="black" points="16,-184.6 16,-184.6 244,-184.6 244,-184.6 16,-184.6"/>
<polygon fill="black" stroke="black" points="16,-160.6 16,-160.6 244,-160.6 244,-160.6 16,-160.6"/>
<polygon fill="none" stroke="black" points="16,-135.6 16,-209.6 244,-209.6 244,-135.6 16,-135.6"/>
</g>
<!-- ServicoReserva1661738127&#45;&gt;MysqlConnection1661738127 -->
<g id="edge3" class="edge">
<title>ServicoReserva1661738127&#45;&gt;MysqlConnection1661738127</title>
<path fill="none" stroke="black" d="M198.52,-135.5C237.32,-115.06 285.17,-89.85 321.41,-70.76"/>
<polygon fill="black" stroke="black" points="323.14,-73.8 330.36,-66.04 319.88,-67.61 323.14,-73.8"/>
<text text-anchor="middle" x="319.71" y="-105" font-family="Times New Roman,serif" font-size="14.00">connection</text>
<text text-anchor="middle" x="319.71" y="-88.2" font-family="Times New Roman,serif" font-size="14.00">[0..1]</text>
</g>
</g>
</svg>
