<?xml version="1.0" encoding="UTF-8" standalone="no"?>
<!DOCTYPE svg PUBLIC "-//W3C//DTD SVG 1.1//EN"
 "http://www.w3.org/Graphics/SVG/1.1/DTD/svg11.dtd">
<!-- Generated by graphviz version 2.44.1 (20200629.0846)
 -->
<!-- Title: g Pages: 1 -->
<svg width="652pt" height="345pt"
 viewBox="0.00 0.00 652.00 345.40" xmlns="http://www.w3.org/2000/svg" xmlns:xlink="http://www.w3.org/1999/xlink">
<g id="graph0" class="graph" transform="scale(1 1) rotate(0) translate(4 341.4)">
<title>g</title>
<polygon fill="white" stroke="transparent" points="-4,4 -4,-341.4 648,-341.4 648,4 -4,4"/>
<g id="clust1" class="cluster">
<title>cluster_995410015</title>
<polygon fill="#ececec" stroke="black" points="8,-8 8,-329.4 636,-329.4 636,-8 8,-8"/>
<text text-anchor="middle" x="33.49" y="-312.8" font-family="Times New Roman,serif" font-size="14.00">parte3</text>
</g>
<!-- Connection1661738129 -->
<g id="node1" class="node">
<title>Connection1661738129</title>
<polygon fill="#f1e5fd" stroke="transparent" points="366,-153 278,-153 278,-103 366,-103 366,-153"/>
<text text-anchor="start" x="282.74" y="-135.4" font-family="Times New Roman,serif" font-size="14.00">(I)Connection</text>
<text text-anchor="start" x="283" y="-111.4" font-family="Times New Roman,serif" font-size="14.00">+ connect()</text>
<polygon fill="black" stroke="black" points="278,-128 278,-128 366,-128 366,-128 278,-128"/>
<polygon fill="none" stroke="black" points="278,-103 278,-153 366,-153 366,-103 278,-103"/>
</g>
<!-- MysqlConnection1661738129 -->
<g id="node2" class="node">
<title>MysqlConnection1661738129</title>
<polygon fill="#ffffff" stroke="transparent" points="239,-66 111,-66 111,-16 239,-16 239,-66"/>
<text text-anchor="start" x="115.51" y="-48.4" font-family="Times New Roman,serif" font-size="14.00">(C)MysqlConnection</text>
<text text-anchor="start" x="116" y="-24.4" font-family="Times New Roman,serif" font-size="14.00">+ connect()</text>
<polygon fill="black" stroke="black" points="111,-41 111,-41 239,-41 239,-41 111,-41"/>
<polygon fill="none" stroke="black" points="111,-16 111,-66 239,-66 239,-16 111,-16"/>
</g>
<!-- Connection1661738129&#45;&gt;MysqlConnection1661738129 -->
<g id="edge1" class="edge">
<title>Connection1661738129&#45;&gt;MysqlConnection1661738129</title>
<path fill="none" stroke="black" d="M271.16,-97.6C253.34,-87.3 233.55,-75.86 216.58,-66.04"/>
<polygon fill="none" stroke="black" points="269.86,-100.89 280.27,-102.87 273.36,-94.83 269.86,-100.89"/>
</g>
<!-- OracleConnection1661738129 -->
<g id="node3" class="node">
<title>OracleConnection1661738129</title>
<polygon fill="#ffffff" stroke="transparent" points="387,-66 257,-66 257,-16 387,-16 387,-66"/>
<text text-anchor="start" x="261.75" y="-48.4" font-family="Times New Roman,serif" font-size="14.00">(C)OracleConnection</text>
<text text-anchor="start" x="262" y="-24.4" font-family="Times New Roman,serif" font-size="14.00">+ connect()</text>
<polygon fill="black" stroke="black" points="257,-41 257,-41 387,-41 387,-41 257,-41"/>
<polygon fill="none" stroke="black" points="257,-16 257,-66 387,-66 387,-16 257,-16"/>
</g>
<!-- Connection1661738129&#45;&gt;OracleConnection1661738129 -->
<g id="edge2" class="edge">
<title>Connection1661738129&#45;&gt;OracleConnection1661738129</title>
<path fill="none" stroke="black" d="M322,-92.75C322,-83.85 322,-74.45 322,-66.19"/>
<polygon fill="none" stroke="black" points="318.5,-92.87 322,-102.87 325.5,-92.87 318.5,-92.87"/>
</g>
<!-- SqlServer1661738129 -->
<g id="node7" class="node">
<title>SqlServer1661738129</title>
<polygon fill="#ffffff" stroke="transparent" points="488.5,-66 405.5,-66 405.5,-16 488.5,-16 488.5,-66"/>
<text text-anchor="start" x="410.57" y="-48.4" font-family="Times New Roman,serif" font-size="14.00">(C)SqlServer</text>
<text text-anchor="start" x="411" y="-24.4" font-family="Times New Roman,serif" font-size="14.00">+ connect()</text>
<polygon fill="black" stroke="black" points="406,-41 406,-41 489,-41 489,-41 406,-41"/>
<polygon fill="none" stroke="black" points="405.5,-16 405.5,-66 488.5,-66 488.5,-16 405.5,-16"/>
</g>
<!-- Connection1661738129&#45;&gt;SqlServer1661738129 -->
<g id="edge3" class="edge">
<title>Connection1661738129&#45;&gt;SqlServer1661738129</title>
<path fill="none" stroke="black" d="M366.03,-97.06C380.9,-86.95 397.3,-75.8 411.43,-66.19"/>
<polygon fill="none" stroke="black" points="363.79,-94.35 357.49,-102.87 367.72,-100.14 363.79,-94.35"/>
</g>
<!-- RelatorioReserva1661738129 -->
<g id="node4" class="node">
<title>RelatorioReserva1661738129</title>
<polygon fill="#ffffff" stroke="transparent" points="628,-296.6 436,-296.6 436,-222.6 628,-222.6 628,-296.6"/>
<text text-anchor="start" x="441" y="-279" font-family="Times New Roman,serif" font-size="14.00">(C)RelatorioReserva</text>
<text text-anchor="start" x="440.83" y="-255" font-family="Times New Roman,serif" font-size="14.00">&#45; &#160;&#160;connection: Connection [0..1]</text>
<text text-anchor="start" x="441" y="-231" font-family="Times New Roman,serif" font-size="14.00">+ gerarRelatorio()</text>
<polygon fill="black" stroke="black" points="436,-271.6 436,-271.6 628,-271.6 628,-271.6 436,-271.6"/>
<polygon fill="black" stroke="black" points="436,-247.6 436,-247.6 628,-247.6 628,-247.6 436,-247.6"/>
<polygon fill="none" stroke="black" points="436,-222.6 436,-296.6 628,-296.6 628,-222.6 436,-222.6"/>
</g>
<!-- RelatorioReserva1661738129&#45;&gt;Connection1661738129 -->
<g id="edge4" class="edge">
<title>RelatorioReserva1661738129&#45;&gt;Connection1661738129</title>
<path fill="none" stroke="black" d="M473.5,-222.5C440.81,-202.32 400.57,-177.49 369.79,-158.49"/>
<polygon fill="black" stroke="black" points="371.31,-155.32 360.96,-153.04 367.63,-161.27 371.31,-155.32"/>
<text text-anchor="middle" x="469.71" y="-192" font-family="Times New Roman,serif" font-size="14.00">connection</text>
<text text-anchor="middle" x="469.71" y="-175.2" font-family="Times New Roman,serif" font-size="14.00">[0..1]</text>
</g>
<!-- ServicoQuarto1661738129 -->
<g id="node5" class="node">
<title>ServicoQuarto1661738129</title>
<polygon fill="#ffffff" stroke="transparent" points="418,-296.6 226,-296.6 226,-222.6 418,-222.6 418,-296.6"/>
<text text-anchor="start" x="231" y="-279" font-family="Times New Roman,serif" font-size="14.00">(C)ServicoQuarto</text>
<text text-anchor="start" x="230.83" y="-255" font-family="Times New Roman,serif" font-size="14.00">&#45; &#160;&#160;connection: Connection [0..1]</text>
<text text-anchor="start" x="231" y="-231" font-family="Times New Roman,serif" font-size="14.00">+ verificarQuarto()</text>
<polygon fill="black" stroke="black" points="226,-271.6 226,-271.6 418,-271.6 418,-271.6 226,-271.6"/>
<polygon fill="black" stroke="black" points="226,-247.6 226,-247.6 418,-247.6 418,-247.6 226,-247.6"/>
<polygon fill="none" stroke="black" points="226,-222.6 226,-296.6 418,-296.6 418,-222.6 226,-222.6"/>
</g>
<!-- ServicoQuarto1661738129&#45;&gt;Connection1661738129 -->
<g id="edge5" class="edge">
<title>ServicoQuarto1661738129&#45;&gt;Connection1661738129</title>
<path fill="none" stroke="black" d="M322,-222.5C322,-203.97 322,-181.51 322,-163.25"/>
<polygon fill="black" stroke="black" points="325.5,-163.04 322,-153.04 318.5,-163.04 325.5,-163.04"/>
<text text-anchor="middle" x="352.71" y="-192" font-family="Times New Roman,serif" font-size="14.00">connection</text>
<text text-anchor="middle" x="352.71" y="-175.2" font-family="Times New Roman,serif" font-size="14.00">[0..1]</text>
</g>
<!-- ServicoReserva1661738129 -->
<g id="node6" class="node">
<title>ServicoReserva1661738129</title>
<polygon fill="#ffffff" stroke="transparent" points="208,-296.6 16,-296.6 16,-222.6 208,-222.6 208,-296.6"/>
<text text-anchor="start" x="21" y="-279" font-family="Times New Roman,serif" font-size="14.00">(C)ServicoReserva</text>
<text text-anchor="start" x="20.83" y="-255" font-family="Times New Roman,serif" font-size="14.00">&#45; &#160;&#160;connection: Connection [0..1]</text>
<text text-anchor="start" x="21" y="-231" font-family="Times New Roman,serif" font-size="14.00">+ criarReserva()</text>
<polygon fill="black" stroke="black" points="16,-271.6 16,-271.6 208,-271.6 208,-271.6 16,-271.6"/>
<polygon fill="black" stroke="black" points="16,-247.6 16,-247.6 208,-247.6 208,-247.6 16,-247.6"/>
<polygon fill="none" stroke="black" points="16,-222.6 16,-296.6 208,-296.6 208,-222.6 16,-222.6"/>
</g>
<!-- ServicoReserva1661738129&#45;&gt;Connection1661738129 -->
<g id="edge6" class="edge">
<title>ServicoReserva1661738129&#45;&gt;Connection1661738129</title>
<path fill="none" stroke="black" d="M170.5,-222.5C203.19,-202.32 243.43,-177.49 274.21,-158.49"/>
<polygon fill="black" stroke="black" points="276.37,-161.27 283.04,-153.04 272.69,-155.32 276.37,-161.27"/>
<text text-anchor="middle" x="278.71" y="-192" font-family="Times New Roman,serif" font-size="14.00">connection</text>
<text text-anchor="middle" x="278.71" y="-175.2" font-family="Times New Roman,serif" font-size="14.00">[0..1]</text>
</g>
</g>
</svg>
