<?xml version="1.0" encoding="UTF-8" standalone="no"?>
<!DOCTYPE svg PUBLIC "-//W3C//DTD SVG 1.1//EN"
 "http://www.w3.org/Graphics/SVG/1.1/DTD/svg11.dtd">
<!-- Generated by graphviz version 2.44.1 (20200629.0846)
 -->
<!-- Title: g Pages: 1 -->
<svg width="616pt" height="823pt"
 viewBox="0.00 0.00 616.00 823.20" xmlns="http://www.w3.org/2000/svg" xmlns:xlink="http://www.w3.org/1999/xlink">
<g id="graph0" class="graph" transform="scale(1 1) rotate(0) translate(4 819.2)">
<title>g</title>
<polygon fill="white" stroke="transparent" points="-4,4 -4,-819.2 612,-819.2 612,4 -4,4"/>
<g id="clust1" class="cluster">
<title>cluster_995410015</title>
<polygon fill="#ececec" stroke="black" points="8,-8 8,-807.2 600,-807.2 600,-8 8,-8"/>
<text text-anchor="middle" x="33.49" y="-790.6" font-family="Times New Roman,serif" font-size="14.00">parte3</text>
</g>
<!-- Component890418832 -->
<g id="node1" class="node">
<title>Component890418832</title>
<polygon fill="#ffffff" stroke="transparent" points="147.5,-66 16.5,-66 16.5,-16 147.5,-16 147.5,-66"/>
<text text-anchor="start" x="22" y="-48.4" font-family="Times New Roman,serif" font-size="14.00">(C)Component</text>
<text text-anchor="start" x="21.65" y="-24.4" font-family="Times New Roman,serif" font-size="14.00">&#45; &#160;&#160;nome: String [0..1]</text>
<polygon fill="black" stroke="black" points="17,-41 17,-41 148,-41 148,-41 17,-41"/>
<polygon fill="none" stroke="black" points="16.5,-16 16.5,-66 147.5,-66 147.5,-16 16.5,-16"/>
</g>
<!-- Container890418832 -->
<g id="node2" class="node">
<title>Container890418832</title>
<polygon fill="#ffffff" stroke="transparent" points="395,-512.6 179,-512.6 179,-390.6 395,-390.6 395,-512.6"/>
<text text-anchor="start" x="184" y="-495" font-family="Times New Roman,serif" font-size="14.00">(C)Container</text>
<text text-anchor="start" x="184" y="-471" font-family="Times New Roman,serif" font-size="14.00">+ addComponent(c: Component)</text>
<text text-anchor="start" x="184" y="-447" font-family="Times New Roman,serif" font-size="14.00">+ dispose()</text>
<text text-anchor="start" x="184" y="-423" font-family="Times New Roman,serif" font-size="14.00">+ doLayout()</text>
<text text-anchor="start" x="183.52" y="-399" font-family="Times New Roman,serif" font-size="14.00">+ removeComponent(c: Component)</text>
<polygon fill="black" stroke="black" points="179,-487.6 179,-487.6 395,-487.6 395,-487.6 179,-487.6"/>
<polygon fill="none" stroke="black" points="179,-390.6 179,-512.6 395,-512.6 395,-390.6 179,-390.6"/>
</g>
<!-- FlowContainer890418832 -->
<g id="node3" class="node">
<title>FlowContainer890418832</title>
<polygon fill="#ffffff" stroke="transparent" points="395.5,-774.4 174.5,-774.4 174.5,-652.4 395.5,-652.4 395.5,-774.4"/>
<text text-anchor="start" x="180" y="-756.8" font-family="Times New Roman,serif" font-size="14.00">(C)FlowContainer</text>
<text text-anchor="start" x="179.81" y="-732.8" font-family="Times New Roman,serif" font-size="14.00"># &#160;&#160;elements: List&lt;Component&gt; [0..*]</text>
<text text-anchor="start" x="180" y="-708.8" font-family="Times New Roman,serif" font-size="14.00">+ addComponent(c: Component)</text>
<text text-anchor="start" x="180" y="-684.8" font-family="Times New Roman,serif" font-size="14.00">+ doLayout()</text>
<text text-anchor="start" x="180" y="-660.8" font-family="Times New Roman,serif" font-size="14.00">+ removeComponent(c: Component)</text>
<polygon fill="black" stroke="black" points="175,-749.4 175,-749.4 396,-749.4 396,-749.4 175,-749.4"/>
<polygon fill="black" stroke="black" points="175,-725.4 175,-725.4 396,-725.4 396,-725.4 175,-725.4"/>
<polygon fill="none" stroke="black" points="174.5,-652.4 174.5,-774.4 395.5,-774.4 395.5,-652.4 174.5,-652.4"/>
</g>
<!-- Container890418832&#45;&gt;FlowContainer890418832 -->
<g id="edge1" class="edge">
<title>Container890418832&#45;&gt;FlowContainer890418832</title>
<path fill="none" stroke="black" d="M286.46,-523.02C286.15,-563.41 285.76,-613.59 285.46,-652.14"/>
<polygon fill="none" stroke="black" points="289.96,-523.01 286.54,-512.98 282.96,-522.95 289.96,-523.01"/>
</g>
<!-- GridContainer890418832 -->
<g id="node6" class="node">
<title>GridContainer890418832</title>
<polygon fill="#ffffff" stroke="transparent" points="252,-353.6 36,-353.6 36,-135.6 252,-135.6 252,-353.6"/>
<text text-anchor="start" x="41" y="-336" font-family="Times New Roman,serif" font-size="14.00">(C)GridContainer</text>
<text text-anchor="start" x="41" y="-312" font-family="Times New Roman,serif" font-size="14.00"># &#160;&#160;ColumnMax: int [1]</text>
<text text-anchor="start" x="41" y="-288" font-family="Times New Roman,serif" font-size="14.00"># &#160;&#160;columnCounter: int [1]</text>
<text text-anchor="start" x="41" y="-264" font-family="Times New Roman,serif" font-size="14.00"># &#160;&#160;elements: Component[][] [0..*]</text>
<text text-anchor="start" x="41" y="-240" font-family="Times New Roman,serif" font-size="14.00"># &#160;&#160;lineCounter: int [1]</text>
<text text-anchor="start" x="41" y="-216" font-family="Times New Roman,serif" font-size="14.00"># &#160;&#160;lineMax: int [1]</text>
<text text-anchor="start" x="41" y="-192" font-family="Times New Roman,serif" font-size="14.00">+ addComponent(c: Component)</text>
<text text-anchor="start" x="41" y="-168" font-family="Times New Roman,serif" font-size="14.00">+ doLayout()</text>
<text text-anchor="start" x="40.52" y="-144" font-family="Times New Roman,serif" font-size="14.00">+ removeComponent(c: Component)</text>
<polygon fill="black" stroke="black" points="36,-328.6 36,-328.6 252,-328.6 252,-328.6 36,-328.6"/>
<polygon fill="black" stroke="black" points="36,-208.6 36,-208.6 252,-208.6 252,-208.6 36,-208.6"/>
<polygon fill="none" stroke="black" points="36,-135.6 36,-353.6 252,-353.6 252,-135.6 36,-135.6"/>
</g>
<!-- Container890418832&#45;&gt;GridContainer890418832 -->
<g id="edge2" class="edge">
<title>Container890418832&#45;&gt;GridContainer890418832</title>
<path fill="none" stroke="black" d="M239.29,-382.2C232.91,-373.06 226.24,-363.5 219.53,-353.88"/>
<polygon fill="none" stroke="black" points="236.47,-384.28 245.06,-390.48 242.21,-380.27 236.47,-384.28"/>
</g>
<!-- FlowContainer890418832&#45;&gt;Component890418832 -->
<g id="edge3" class="edge">
<title>FlowContainer890418832&#45;&gt;Component890418832</title>
<path fill="none" stroke="black" d="M174.24,-658.37C166.69,-654.69 162,-652.4 162,-652.4 162,-652.4 61,-615.4 61,-615.4 61,-615.4 27,-353.6 27,-353.6 27,-353.6 27,-135.6 27,-135.6 27,-135.6 46.81,-101.89 62.65,-74.93"/>
<polygon fill="black" stroke="black" points="65.79,-76.5 67.84,-66.1 59.75,-72.95 65.79,-76.5"/>
<text text-anchor="middle" x="71.88" y="-455.8" font-family="Times New Roman,serif" font-size="14.00">elements</text>
<text text-anchor="middle" x="71.88" y="-439" font-family="Times New Roman,serif" font-size="14.00">[0..*]</text>
</g>
<!-- FlowContainerBordaPontilhada890418832 -->
<g id="node4" class="node">
<title>FlowContainerBordaPontilhada890418832</title>
<polygon fill="#ffffff" stroke="transparent" points="511,-615.4 305,-615.4 305,-565.4 511,-565.4 511,-615.4"/>
<text text-anchor="start" x="309.63" y="-597.8" font-family="Times New Roman,serif" font-size="14.00">(C)FlowContainerBordaPontilhada</text>
<text text-anchor="start" x="310" y="-573.8" font-family="Times New Roman,serif" font-size="14.00">+ doLayout()</text>
<polygon fill="black" stroke="black" points="305,-590.4 305,-590.4 511,-590.4 511,-590.4 305,-590.4"/>
<polygon fill="none" stroke="black" points="305,-565.4 305,-615.4 511,-615.4 511,-565.4 305,-565.4"/>
</g>
<!-- FlowContainer890418832&#45;&gt;FlowContainerBordaPontilhada890418832 -->
<g id="edge4" class="edge">
<title>FlowContainer890418832&#45;&gt;FlowContainerBordaPontilhada890418832</title>
<path fill="none" stroke="black" d="M353.28,-645.23C364.1,-634.59 374.64,-624.22 383.53,-615.47"/>
<polygon fill="none" stroke="black" points="350.81,-642.75 346.14,-652.25 355.72,-647.74 350.81,-642.75"/>
</g>
<!-- FlowContainerBordaSolida890418832 -->
<g id="node5" class="node">
<title>FlowContainerBordaSolida890418832</title>
<polygon fill="#ffffff" stroke="transparent" points="252,-615.4 70,-615.4 70,-565.4 252,-565.4 252,-615.4"/>
<text text-anchor="start" x="74.68" y="-597.8" font-family="Times New Roman,serif" font-size="14.00">(C)FlowContainerBordaSolida</text>
<text text-anchor="start" x="75" y="-573.8" font-family="Times New Roman,serif" font-size="14.00">+ doLayout()</text>
<polygon fill="black" stroke="black" points="70,-590.4 70,-590.4 252,-590.4 252,-590.4 70,-590.4"/>
<polygon fill="none" stroke="black" points="70,-565.4 70,-615.4 252,-615.4 252,-565.4 70,-565.4"/>
</g>
<!-- FlowContainer890418832&#45;&gt;FlowContainerBordaSolida890418832 -->
<g id="edge5" class="edge">
<title>FlowContainer890418832&#45;&gt;FlowContainerBordaSolida890418832</title>
<path fill="none" stroke="black" d="M216.17,-645.23C205.26,-634.59 194.63,-624.22 185.67,-615.47"/>
<polygon fill="none" stroke="black" points="213.76,-647.78 223.36,-652.25 218.65,-642.77 213.76,-647.78"/>
</g>
<!-- FlowContainerBordaPontilhada890418832&#45;&gt;Container890418832 -->
<g id="edge6" class="edge">
<title>FlowContainerBordaPontilhada890418832&#45;&gt;Container890418832</title>
<path fill="none" stroke="black" d="M386.65,-565.26C375.51,-552.67 361.27,-536.57 347.07,-520.51"/>
<polygon fill="black" stroke="black" points="349.36,-517.82 340.11,-512.65 344.11,-522.45 349.36,-517.82"/>
<text text-anchor="middle" x="434.92" y="-534.8" font-family="Times New Roman,serif" font-size="14.00">doLayout() &#45;&gt; dispose()</text>
</g>
<!-- FlowContainerBordaSolida890418832&#45;&gt;Container890418832 -->
<g id="edge7" class="edge">
<title>FlowContainerBordaSolida890418832&#45;&gt;Container890418832</title>
<path fill="none" stroke="black" d="M152.94,-564.97C149.9,-555.73 147.15,-547.4 147.15,-547.4 147.15,-547.4 147.15,-530.6 147.15,-530.6 147.15,-530.6 156.4,-525.44 170.14,-517.78"/>
<polygon fill="black" stroke="black" points="172.21,-520.63 179.23,-512.71 168.8,-514.52 172.21,-520.63"/>
<text text-anchor="middle" x="213.92" y="-534.8" font-family="Times New Roman,serif" font-size="14.00">doLayout() &#45;&gt; dispose()</text>
</g>
<!-- GridContainer890418832&#45;&gt;Component890418832 -->
<g id="edge8" class="edge">
<title>GridContainer890418832&#45;&gt;Component890418832</title>
<path fill="none" stroke="black" d="M110.73,-135.42C104.07,-113.76 97.55,-92.56 92.41,-75.84"/>
<polygon fill="black" stroke="black" points="95.68,-74.58 89.4,-66.05 88.99,-76.64 95.68,-74.58"/>
<text text-anchor="middle" x="127.88" y="-105" font-family="Times New Roman,serif" font-size="14.00">elements</text>
<text text-anchor="middle" x="127.88" y="-88.2" font-family="Times New Roman,serif" font-size="14.00">[0..*]</text>
</g>
<!-- GridContainerBordaPontilhada890418832 -->
<g id="node7" class="node">
<title>GridContainerBordaPontilhada890418832</title>
<polygon fill="#ffffff" stroke="transparent" points="368.5,-66 165.5,-66 165.5,-16 368.5,-16 368.5,-66"/>
<text text-anchor="start" x="170.69" y="-48.4" font-family="Times New Roman,serif" font-size="14.00">(C)GridContainerBordaPontilhada</text>
<text text-anchor="start" x="171" y="-24.4" font-family="Times New Roman,serif" font-size="14.00">+ doLayout()</text>
<polygon fill="black" stroke="black" points="166,-41 166,-41 369,-41 369,-41 166,-41"/>
<polygon fill="none" stroke="black" points="165.5,-16 165.5,-66 368.5,-66 368.5,-16 165.5,-16"/>
</g>
<!-- GridContainer890418832&#45;&gt;GridContainerBordaPontilhada890418832 -->
<g id="edge9" class="edge">
<title>GridContainer890418832&#45;&gt;GridContainerBordaPontilhada890418832</title>
<path fill="none" stroke="black" d="M193.39,-125.94C203.44,-102.02 211,-84 211,-84 211,-84 222.3,-75.52 234.75,-66.19"/>
<polygon fill="none" stroke="black" points="190.08,-124.8 189.43,-135.38 196.53,-127.51 190.08,-124.8"/>
</g>
<!-- GridContainerBordaSolida890418832 -->
<g id="node8" class="node">
<title>GridContainerBordaSolida890418832</title>
<polygon fill="#ffffff" stroke="transparent" points="565.5,-66 386.5,-66 386.5,-16 565.5,-16 565.5,-66"/>
<text text-anchor="start" x="391.74" y="-48.4" font-family="Times New Roman,serif" font-size="14.00">(C)GridContainerBordaSolida</text>
<text text-anchor="start" x="392" y="-24.4" font-family="Times New Roman,serif" font-size="14.00">+ doLayout()</text>
<polygon fill="black" stroke="black" points="387,-41 387,-41 566,-41 566,-41 387,-41"/>
<polygon fill="none" stroke="black" points="386.5,-16 386.5,-66 565.5,-66 565.5,-16 386.5,-16"/>
</g>
<!-- GridContainer890418832&#45;&gt;GridContainerBordaSolida890418832 -->
<g id="edge10" class="edge">
<title>GridContainer890418832&#45;&gt;GridContainerBordaSolida890418832</title>
<path fill="none" stroke="black" d="M259.63,-141.24C263.66,-137.67 266,-135.6 266,-135.6 266,-135.6 359.7,-93.84 421.92,-66.1"/>
<polygon fill="none" stroke="black" points="257.17,-138.74 252.01,-147.99 261.81,-143.98 257.17,-138.74"/>
</g>
<!-- GridContainerBordaPontilhada890418832&#45;&gt;Container890418832 -->
<g id="edge11" class="edge">
<title>GridContainerBordaPontilhada890418832&#45;&gt;Container890418832</title>
<path fill="none" stroke="black" d="M268.18,-66.2C271.15,-126.77 278.98,-286.72 283.55,-380.1"/>
<polygon fill="black" stroke="black" points="280.06,-380.49 284.05,-390.31 287.06,-380.15 280.06,-380.49"/>
<text text-anchor="middle" x="348.92" y="-240.4" font-family="Times New Roman,serif" font-size="14.00">doLayout() &#45;&gt; dispose()</text>
</g>
<!-- GridContainerBordaSolida890418832&#45;&gt;Container890418832 -->
<g id="edge12" class="edge">
<title>GridContainerBordaSolida890418832&#45;&gt;Container890418832</title>
<path fill="none" stroke="black" d="M471.65,-66.19C458.49,-139.4 420,-353.6 420,-353.6 420,-353.6 401.07,-367.41 377.49,-384.6"/>
<polygon fill="black" stroke="black" points="375.36,-381.83 369.34,-390.55 379.48,-387.48 375.36,-381.83"/>
<text text-anchor="middle" x="524.92" y="-240.4" font-family="Times New Roman,serif" font-size="14.00">doLayout() &#45;&gt; dispose()</text>
</g>
<!-- TesteHeranca890418832 -->
<g id="node9" class="node">
<title>TesteHeranca890418832</title>
<polygon fill="#ffffff" stroke="transparent" points="153,-738.4 21,-738.4 21,-688.4 153,-688.4 153,-738.4"/>
<text text-anchor="start" x="26" y="-720.8" font-family="Times New Roman,serif" font-size="14.00">(C)TesteHeranca</text>
<text text-anchor="start" x="25.52" y="-696.8" font-family="Times New Roman,serif" font-size="14.00">+ main(args: String[])</text>
<polygon fill="black" stroke="black" points="21,-713.4 21,-713.4 153,-713.4 153,-713.4 21,-713.4"/>
<polygon fill="none" stroke="black" points="21,-688.4 21,-738.4 153,-738.4 153,-688.4 21,-688.4"/>
</g>
</g>
</svg>
