<?xml version="1.0" encoding="UTF-8" standalone="no"?>
<!DOCTYPE svg PUBLIC "-//W3C//DTD SVG 1.1//EN"
 "http://www.w3.org/Graphics/SVG/1.1/DTD/svg11.dtd">
<!-- Generated by graphviz version 2.44.1 (20200629.0846)
 -->
<!-- Title: g Pages: 1 -->
<svg width="496pt" height="585pt"
 viewBox="0.00 0.00 496.00 585.40" xmlns="http://www.w3.org/2000/svg" xmlns:xlink="http://www.w3.org/1999/xlink">
<g id="graph0" class="graph" transform="scale(1 1) rotate(0) translate(4 581.4)">
<title>g</title>
<polygon fill="white" stroke="transparent" points="-4,4 -4,-581.4 492,-581.4 492,4 -4,4"/>
<g id="clust1" class="cluster">
<title>cluster_995410014</title>
<polygon fill="#ececec" stroke="black" points="8,-8 8,-569.4 480,-569.4 480,-8 8,-8"/>
<text text-anchor="middle" x="33.49" y="-552.8" font-family="Times New Roman,serif" font-size="14.00">parte4</text>
</g>
<!-- BordaPontilhada890418831 -->
<g id="node1" class="node">
<title>BordaPontilhada890418831</title>
<polygon fill="#ffffff" stroke="transparent" points="461,-66 339,-66 339,-16 461,-16 461,-66"/>
<text text-anchor="start" x="343.62" y="-48.4" font-family="Times New Roman,serif" font-size="14.00">(C)BordaPontilhada</text>
<text text-anchor="start" x="344" y="-24.4" font-family="Times New Roman,serif" font-size="14.00">+ gerarBorda()</text>
<polygon fill="black" stroke="black" points="339,-41 339,-41 461,-41 461,-41 339,-41"/>
<polygon fill="none" stroke="black" points="339,-16 339,-66 461,-66 461,-16 339,-16"/>
</g>
<!-- BordaSolida890418831 -->
<g id="node2" class="node">
<title>BordaSolida890418831</title>
<polygon fill="#ffffff" stroke="transparent" points="321,-66 223,-66 223,-16 321,-16 321,-66"/>
<text text-anchor="start" x="227.68" y="-48.4" font-family="Times New Roman,serif" font-size="14.00">(C)BordaSolida</text>
<text text-anchor="start" x="228" y="-24.4" font-family="Times New Roman,serif" font-size="14.00">+ gerarBorda()</text>
<polygon fill="black" stroke="black" points="223,-41 223,-41 321,-41 321,-41 223,-41"/>
<polygon fill="none" stroke="black" points="223,-16 223,-66 321,-66 321,-16 223,-16"/>
</g>
<!-- Component890418831 -->
<g id="node3" class="node">
<title>Component890418831</title>
<polygon fill="#ffffff" stroke="transparent" points="198.5,-66 67.5,-66 67.5,-16 198.5,-16 198.5,-66"/>
<text text-anchor="start" x="73" y="-48.4" font-family="Times New Roman,serif" font-size="14.00">(C)Component</text>
<text text-anchor="start" x="72.65" y="-24.4" font-family="Times New Roman,serif" font-size="14.00">&#45; &#160;&#160;nome: String [0..1]</text>
<polygon fill="black" stroke="black" points="68,-41 68,-41 199,-41 199,-41 68,-41"/>
<polygon fill="none" stroke="black" points="67.5,-16 67.5,-66 198.5,-66 198.5,-16 67.5,-16"/>
</g>
<!-- Container890418831 -->
<g id="node4" class="node">
<title>Container890418831</title>
<polygon fill="#ffffff" stroke="transparent" points="449,-536.6 233,-536.6 233,-390.6 449,-390.6 449,-536.6"/>
<text text-anchor="start" x="238" y="-519" font-family="Times New Roman,serif" font-size="14.00">(C)Container</text>
<text text-anchor="start" x="238" y="-495" font-family="Times New Roman,serif" font-size="14.00"># &#160;&#160;borda: Borda [0..1]</text>
<text text-anchor="start" x="238" y="-471" font-family="Times New Roman,serif" font-size="14.00">+ addComponent(c: Component)</text>
<text text-anchor="start" x="238" y="-447" font-family="Times New Roman,serif" font-size="14.00">+ dispose()</text>
<text text-anchor="start" x="238" y="-423" font-family="Times New Roman,serif" font-size="14.00">+ doLayout()</text>
<text text-anchor="start" x="237.52" y="-399" font-family="Times New Roman,serif" font-size="14.00">+ removeComponent(c: Component)</text>
<polygon fill="black" stroke="black" points="233,-511.6 233,-511.6 449,-511.6 449,-511.6 233,-511.6"/>
<polygon fill="black" stroke="black" points="233,-487.6 233,-487.6 449,-487.6 449,-487.6 233,-487.6"/>
<polygon fill="none" stroke="black" points="233,-390.6 233,-536.6 449,-536.6 449,-390.6 233,-390.6"/>
</g>
<!-- FlowContainer890418831 -->
<g id="node5" class="node">
<title>FlowContainer890418831</title>
<polygon fill="#ffffff" stroke="transparent" points="237.5,-305.6 16.5,-305.6 16.5,-183.6 237.5,-183.6 237.5,-305.6"/>
<text text-anchor="start" x="22" y="-288" font-family="Times New Roman,serif" font-size="14.00">(C)FlowContainer</text>
<text text-anchor="start" x="21.81" y="-264" font-family="Times New Roman,serif" font-size="14.00"># &#160;&#160;elements: List&lt;Component&gt; [0..*]</text>
<text text-anchor="start" x="22" y="-240" font-family="Times New Roman,serif" font-size="14.00">+ addComponent(c: Component)</text>
<text text-anchor="start" x="22" y="-216" font-family="Times New Roman,serif" font-size="14.00">+ doLayout()</text>
<text text-anchor="start" x="22" y="-192" font-family="Times New Roman,serif" font-size="14.00">+ removeComponent(c: Component)</text>
<polygon fill="black" stroke="black" points="17,-280.6 17,-280.6 238,-280.6 238,-280.6 17,-280.6"/>
<polygon fill="black" stroke="black" points="17,-256.6 17,-256.6 238,-256.6 238,-256.6 17,-256.6"/>
<polygon fill="none" stroke="black" points="16.5,-183.6 16.5,-305.6 237.5,-305.6 237.5,-183.6 16.5,-183.6"/>
</g>
<!-- Container890418831&#45;&gt;FlowContainer890418831 -->
<g id="edge1" class="edge">
<title>Container890418831&#45;&gt;FlowContainer890418831</title>
<path fill="none" stroke="black" d="M262.68,-383.18C237.41,-357.55 209.83,-329.59 186.18,-305.61"/>
<polygon fill="none" stroke="black" points="260.23,-385.68 269.74,-390.34 265.21,-380.76 260.23,-385.68"/>
</g>
<!-- GridContainer890418831 -->
<g id="node6" class="node">
<title>GridContainer890418831</title>
<polygon fill="#ffffff" stroke="transparent" points="472,-353.6 256,-353.6 256,-135.6 472,-135.6 472,-353.6"/>
<text text-anchor="start" x="261" y="-336" font-family="Times New Roman,serif" font-size="14.00">(C)GridContainer</text>
<text text-anchor="start" x="261" y="-312" font-family="Times New Roman,serif" font-size="14.00"># &#160;&#160;ColumnMax: int [1]</text>
<text text-anchor="start" x="261" y="-288" font-family="Times New Roman,serif" font-size="14.00"># &#160;&#160;columnCounter: int [1]</text>
<text text-anchor="start" x="261" y="-264" font-family="Times New Roman,serif" font-size="14.00"># &#160;&#160;elements: Component[][] [0..*]</text>
<text text-anchor="start" x="261" y="-240" font-family="Times New Roman,serif" font-size="14.00"># &#160;&#160;lineCounter: int [1]</text>
<text text-anchor="start" x="261" y="-216" font-family="Times New Roman,serif" font-size="14.00"># &#160;&#160;lineMax: int [1]</text>
<text text-anchor="start" x="261" y="-192" font-family="Times New Roman,serif" font-size="14.00">+ addComponent(c: Component)</text>
<text text-anchor="start" x="261" y="-168" font-family="Times New Roman,serif" font-size="14.00">+ doLayout()</text>
<text text-anchor="start" x="260.52" y="-144" font-family="Times New Roman,serif" font-size="14.00">+ removeComponent(c: Component)</text>
<polygon fill="black" stroke="black" points="256,-328.6 256,-328.6 472,-328.6 472,-328.6 256,-328.6"/>
<polygon fill="black" stroke="black" points="256,-208.6 256,-208.6 472,-208.6 472,-208.6 256,-208.6"/>
<polygon fill="none" stroke="black" points="256,-135.6 256,-353.6 472,-353.6 472,-135.6 256,-135.6"/>
</g>
<!-- Container890418831&#45;&gt;GridContainer890418831 -->
<g id="edge2" class="edge">
<title>Container890418831&#45;&gt;GridContainer890418831</title>
<path fill="none" stroke="black" d="M349.72,-380.32C350.64,-371.68 351.58,-362.81 352.52,-353.93"/>
<polygon fill="none" stroke="black" points="346.23,-380.03 348.66,-390.34 353.19,-380.77 346.23,-380.03"/>
</g>
<!-- FlowContainer890418831&#45;&gt;Component890418831 -->
<g id="edge3" class="edge">
<title>FlowContainer890418831&#45;&gt;Component890418831</title>
<path fill="none" stroke="black" d="M128.79,-183.39C129.83,-148.36 131.11,-105.47 131.98,-76.18"/>
<polygon fill="black" stroke="black" points="135.49,-76.15 132.28,-66.05 128.49,-75.94 135.49,-76.15"/>
<text text-anchor="middle" x="155.88" y="-105" font-family="Times New Roman,serif" font-size="14.00">elements</text>
<text text-anchor="middle" x="155.88" y="-88.2" font-family="Times New Roman,serif" font-size="14.00">[0..*]</text>
</g>
<!-- GridContainer890418831&#45;&gt;BordaPontilhada890418831 -->
<g id="edge4" class="edge">
<title>GridContainer890418831&#45;&gt;BordaPontilhada890418831</title>
<path fill="none" stroke="black" d="M383.32,-135.42C387.99,-109.27 392.54,-83.78 395.71,-66.05"/>
</g>
<!-- GridContainer890418831&#45;&gt;BordaSolida890418831 -->
<g id="edge5" class="edge">
<title>GridContainer890418831&#45;&gt;BordaSolida890418831</title>
<path fill="none" stroke="black" d="M323.31,-135.38C312.61,-106.91 304,-84 304,-84 304,-84 297.65,-75.67 290.61,-66.43"/>
</g>
<!-- GridContainer890418831&#45;&gt;Component890418831 -->
<g id="edge6" class="edge">
<title>GridContainer890418831&#45;&gt;Component890418831</title>
<path fill="none" stroke="black" d="M255.79,-143.72C250.3,-138.65 247,-135.6 247,-135.6 247,-135.6 185,-84 185,-84 185,-84 178.85,-79.03 170.78,-72.51"/>
<polygon fill="black" stroke="black" points="172.93,-69.75 162.95,-66.19 168.53,-75.19 172.93,-69.75"/>
<text text-anchor="middle" x="249.88" y="-105" font-family="Times New Roman,serif" font-size="14.00">elements</text>
<text text-anchor="middle" x="249.88" y="-88.2" font-family="Times New Roman,serif" font-size="14.00">[0..*]</text>
</g>
<!-- TesteHeranca890418831 -->
<g id="node7" class="node">
<title>TesteHeranca890418831</title>
<polygon fill="#ffffff" stroke="transparent" points="193,-488.6 61,-488.6 61,-438.6 193,-438.6 193,-488.6"/>
<text text-anchor="start" x="66" y="-471" font-family="Times New Roman,serif" font-size="14.00">(C)TesteHeranca</text>
<text text-anchor="start" x="65.52" y="-447" font-family="Times New Roman,serif" font-size="14.00">+ main(args: String[])</text>
<polygon fill="black" stroke="black" points="61,-463.6 61,-463.6 193,-463.6 193,-463.6 61,-463.6"/>
<polygon fill="none" stroke="black" points="61,-438.6 61,-488.6 193,-488.6 193,-438.6 61,-438.6"/>
</g>
</g>
</svg>
